<?xml version="1.0" encoding="utf-8"?>
<!-- Generator: Adobe Illustrator 19.1.0, SVG Export Plug-In . SVG Version: 6.00 Build 0)  -->
<!DOCTYPE svg PUBLIC "-//W3C//DTD SVG 1.1//EN" "http://www.w3.org/Graphics/SVG/1.1/DTD/svg11.dtd">
<svg version="1.1" id="Layer_1" xmlns="http://www.w3.org/2000/svg" xmlns:xlink="http://www.w3.org/1999/xlink" x="0px" y="0px"
	 viewBox="0 0 90 90" style="enable-background:new 0 0 90 90;" xml:space="preserve">
<style type="text/css">
	.st0{fill:none;stroke:#EA4444;stroke-linecap:square;stroke-miterlimit:10;}
	.st1{fill:none;stroke:#EA4444;stroke-width:0.5;stroke-linecap:square;stroke-miterlimit:10;}
</style>
<path id="XMLID_6_" class="st0" d="M30,90c0-8.2-6.8-15-15-15S0,81.8,0,90c8.2,0,15-6.7,15-15S8.2,60,0,60V30"/>
<path id="XMLID_11_" class="st1" d="M45,15c8.2,0,15,6.8,15,15s-6.8,15-15,15s-15,6.8-15,15s6.8,15,15,15"/>
<path id="XMLID_2_" class="st1" d="M90,45H75c0-8.2-6.7-15-15-15s-15,6.8-15,15s-6.7,15-15,15s-15-6.8-15-15H0"/>
<path id="XMLID_14_" class="st0" d="M75,45c0,8.2-6.8,15-15,15s-15-6.8-15-15s-6.8-15-15-15s-15,6.8-15,15"/>
<path id="XMLID_7_" class="st0" d="M45,90V75c8.2,0,15-6.7,15-15s-6.8-15-15-15s-15-6.7-15-15s6.8-15,15-15V0"/>
<path class="st1" d="M30,90h30c0-8.2,6.8-15,15-15s15,6.8,15,15c-8.2,0-15-6.7-15-15s6.8-15,15-15"/>
<path id="XMLID_1_" class="st0" d="M60,0c0,8.2,6.8,15,15,15S90,8.2,90,0c-8.2,0-15,6.7-15,15s6.8,15,15,15v30"/>
<path class="st1" d="M60,0H30c0,8.2-6.8,15-15,15S0,8.2,0,0c8.2,0,15,6.7,15,15S8.2,30,0,30"/>
</svg>
