<?xml version="1.0" encoding="utf-8"?>
<!-- Generator: Adobe Illustrator 18.1.0, SVG Export Plug-In . SVG Version: 6.00 Build 0)  -->
<svg version="1.1" id="Layer_1" xmlns="http://www.w3.org/2000/svg" xmlns:xlink="http://www.w3.org/1999/xlink" x="0px" y="0px"
	 viewBox="0 0 270 270" style="enable-background:new 0 0 270 270;" xml:space="preserve">
<style type="text/css">
	.st0{fill:none;stroke:#EA4444;stroke-linecap:square;stroke-miterlimit:10;}
</style>
<path id="XMLID_14_" class="st0" d="M45,75l15,15c0,8.2,6.8,15,15,15c0,8.3,6.8,15,15,15h30c8.2,0,15,6.8,15,15s6.8,15,15,15
	s15-6.8,15-15h30c0-8.2,6.8-15,15-15s15,6.8,15,15s6.8,15,15,15h11.2"/>
<path id="XMLID_2_" class="st0" d="M81.5,225H105c0-8.2,6.8-15,15-15c0-8.3,6.8-15,15-15v-15h45v-60c8.2,0,15-6.7,15-15
	c8.2,0,15-6.8,15-15l27-27"/>
<path id="XMLID_1_" class="st0" d="M30,240l15-15c8.2,0,15-6.8,15-15s-6.8-15-15-15v-30c8.2,0,15-6.7,15-15c8.2,0,15-6.8,15-15h60
	c8.2,0,15-6.8,15-15l15-15"/>
<path id="XMLID_6_" class="st0" d="M265.2,225H255c0,8.2-6.8,15-15,15s-15-6.8-15-15s-6.8-15-15-15h-60c0-8.2-6.8-15-15-15v-15h-15
	c0-8.2-6.8-15-15-15c0-8.3-6.8-15-15-15H78.2"/>
</svg>
