<?xml version="1.0" encoding="utf-8"?>
<!-- Generator: Adobe Illustrator 19.1.0, SVG Export Plug-In . SVG Version: 6.00 Build 0)  -->
<!DOCTYPE svg PUBLIC "-//W3C//DTD SVG 1.1//EN" "http://www.w3.org/Graphics/SVG/1.1/DTD/svg11.dtd">
<svg version="1.1" id="Layer_1" xmlns="http://www.w3.org/2000/svg" xmlns:xlink="http://www.w3.org/1999/xlink" x="0px" y="0px"
	 viewBox="0 0 90 90" style="enable-background:new 0 0 90 90;" xml:space="preserve">
<style type="text/css">
	.st0{fill:none;stroke:#37B38B;stroke-linejoin:bevel;stroke-miterlimit:10;}
	.st1{fill:none;stroke:#37B38B;stroke-width:0.5;stroke-linejoin:bevel;stroke-miterlimit:10;}
</style>
<path id="XMLID_82_" class="st0" d="M12.8,19.5L0,45l25.5-12.8c2.9-1.5,5.3-3.8,6.7-6.7L45,0L19.5,12.8
	C16.6,14.2,14.2,16.6,12.8,19.5z"/>
<path id="XMLID_70_" class="st0" d="M70.5,12.8L45,0l12.8,25.5c1.5,2.9,3.8,5.3,6.7,6.7L90,45L77.2,19.5
	C75.8,16.6,73.4,14.2,70.5,12.8z"/>
<path id="XMLID_66_" class="st0" d="M77.2,70.5L90,45L64.5,57.8c-2.9,1.5-5.3,3.8-6.7,6.7L45,90l25.5-12.8
	C73.4,75.8,75.8,73.4,77.2,70.5z"/>
<path id="XMLID_65_" class="st1" d="M57.8,19.5L45,45l25.5-12.8c2.9-1.5,5.3-3.8,6.7-6.7L90,0L64.5,12.8
	C61.6,14.2,59.2,16.6,57.8,19.5z"/>
<path id="XMLID_63_" class="st1" d="M32.2,70.5L45,45L19.5,57.8c-2.9,1.5-5.3,3.8-6.7,6.7L0,90l25.5-12.8
	C28.4,75.8,30.8,73.4,32.2,70.5z"/>
<path id="XMLID_47_" class="st1" d="M25.5,12.8L0,0l12.8,25.5c1.5,2.9,3.8,5.3,6.7,6.7L45,45L32.2,19.5
	C30.8,16.6,28.4,14.2,25.5,12.8z"/>
<path id="XMLID_36_" class="st0" d="M25.5,57.8L0,45l12.8,25.5c1.5,2.9,3.8,5.3,6.7,6.7L45,90L32.2,64.5
	C30.8,61.6,28.4,59.2,25.5,57.8z"/>
<path id="XMLID_33_" class="st1" d="M70.5,57.8L45,45l12.8,25.5c1.5,2.9,3.8,5.3,6.7,6.7L90,90L77.2,64.5
	C75.8,61.6,73.4,59.2,70.5,57.8z"/>
</svg>
