<?xml version="1.0" encoding="utf-8"?>
<!-- Generator: Adobe Illustrator 18.1.0, SVG Export Plug-In . SVG Version: 6.00 Build 0)  -->
<svg version="1.1" id="Layer_1" xmlns="http://www.w3.org/2000/svg" xmlns:xlink="http://www.w3.org/1999/xlink" x="0px" y="0px"
	 viewBox="0 0 270 270" style="enable-background:new 0 0 270 270;" xml:space="preserve">
<style type="text/css">
	.st0{fill:none;stroke:#37B38B;stroke-linejoin:bevel;stroke-miterlimit:10;}
</style>
<path id="XMLID_4_" class="st0" d="M250.5,237.8L225,225l-25.5-12.8c-2.9-1.4-5.2-3.8-6.7-6.7L180,180l-11.3-22.5
	c0,0,11.3-22.5,11.3-22.5l-12.8-25.5c-1.4-2.9-3.8-5.3-6.7-6.7L135,90l-22.5-11.3l0,0L90,90l-22.5,11.3C67.5,101.3,45,90,45,90
	L32.2,64.5c-1.4-2.9-3.8-5.3-6.7-6.7L0,45"/>
<path id="XMLID_1_" class="st0" d="M45,90l25.5,12.8c2.9,1.4,5.3,3.8,6.7,6.7L90,135c0,0,22.5,11.3,22.5,11.3L135,135
	c0,0,22.5,11.3,22.5,11.3L180,135c0,0,22.5-11.3,22.5-11.3L225,135l25.5,12.8"/>
<path id="XMLID_73_" class="st0" d="M225,45l-12.8,25.5c-1.4,2.9-3.8,5.3-6.7,6.7L180,90c0,0-22.5-11.3-22.5-11.3L135,90l-25.5,12.8
	c-2.9,1.4-5.3,3.8-6.7,6.7L90,135c0,0,11.3,22.5,11.3,22.5L90,180l-25.5,12.8c-2.9,1.4-5.3,3.8-6.7,6.7L45,225"/>
<path id="XMLID_2_" class="st0" d="M19.5,237.8L45,225c0,0,22.5-11.3,22.5-11.3L90,225l25.5-12.8c2.9-1.5,5.3-3.8,6.7-6.7L135,180
	c0,0,22.5,11.3,22.5,11.3L180,180l22.7-11.4l0,0.2L225,180l22.5,11.3c0,0,22.5-11.3,22.5-11.3"/>
</svg>
