<?xml version="1.0" encoding="utf-8"?>
<!-- Generator: Adobe Illustrator 19.1.0, SVG Export Plug-In . SVG Version: 6.00 Build 0)  -->
<!DOCTYPE svg PUBLIC "-//W3C//DTD SVG 1.1//EN" "http://www.w3.org/Graphics/SVG/1.1/DTD/svg11.dtd">
<svg version="1.1" id="Layer_1" xmlns="http://www.w3.org/2000/svg" xmlns:xlink="http://www.w3.org/1999/xlink" x="0px" y="0px"
	 viewBox="0 0 90 90" style="enable-background:new 0 0 90 90;" xml:space="preserve">
<style type="text/css">
	.st0{fill:none;stroke:#A13ECD;stroke-width:0.5;stroke-linejoin:bevel;stroke-miterlimit:10;}
	.st1{fill:none;stroke:#A13ECD;stroke-linejoin:bevel;stroke-miterlimit:10;}
</style>
<path class="st0" d="M62.7,17.7l9.7,9.7c9.8,9.8,9.8,25.6,0,35.3l-9.7,9.7c-9.8,9.8-25.6,9.8-35.3,0l-9.7-9.7
	c-9.8-9.8-9.8-25.6,0-35.3l9.7-9.7C37.1,7.9,52.9,7.9,62.7,17.7z"/>
<path class="st1" d="M0,79.7c6.4,0,12.8-2.4,17.7-7.3l4.8-4.8l4.8-4.8c9.8-9.8,9.8-25.6,0-35.3l-4.8-4.8l-4.8-4.8
	C12.8,12.8,6.4,10.4,0,10.4"/>
<path class="st1" d="M90,79.7c-6.4,0-12.8-2.4-17.7-7.3l-4.8-4.8l-4.8-4.8c-9.8-9.8-9.8-25.6,0-35.3l4.8-4.8l4.8-4.8
	c4.9-4.9,11.3-7.3,17.7-7.3"/>
<path class="st0" d="M90,34.7c-6.4,0-12.8-2.4-17.7-7.3l-4.8-4.8l-4.8-4.8C57.8,12.8,55.3,6.4,55.3,0"/>
<path class="st1" d="M10.4,0c0,6.4,2.4,12.8,7.3,17.7l4.8,4.8l4.8,4.8c9.8,9.8,25.6,9.8,35.3,0l4.8-4.8l4.8-4.8
	c4.9-4.9,7.3-11.3,7.3-17.7"/>
<path class="st0" d="M0,34.7c6.4,0,12.8-2.4,17.7-7.3l4.8-4.8l4.8-4.8c4.9-4.9,7.3-11.3,7.3-17.7"/>
<path class="st0" d="M55.3,90c0-6.4,2.4-12.8,7.3-17.7l4.8-4.8l4.8-4.8c4.9-4.9,11.3-7.3,17.7-7.3"/>
<path class="st1" d="M79.7,90c0-6.4-2.4-12.8-7.3-17.7l-4.8-4.8l-4.8-4.8c-9.8-9.8-25.6-9.8-35.3,0l-4.8,4.8l-4.8,4.8
	c-4.9,4.9-7.3,11.3-7.3,17.7"/>
<path class="st0" d="M34.7,90c0-6.4-2.4-12.8-7.3-17.7l-4.8-4.8l-4.8-4.8C12.8,57.8,6.4,55.3,0,55.3"/>
</svg>
