<?xml version="1.0" encoding="utf-8"?>
<!-- Generator: Adobe Illustrator 18.1.0, SVG Export Plug-In . SVG Version: 6.00 Build 0)  -->
<svg version="1.1" id="Layer_1" xmlns="http://www.w3.org/2000/svg" xmlns:xlink="http://www.w3.org/1999/xlink" x="0px" y="0px"
	 viewBox="0 0 270 270" style="enable-background:new 0 0 270 270;" xml:space="preserve">
<style type="text/css">
	.st0{fill:none;stroke:#A13ECD;stroke-width:0.5;stroke-linejoin:bevel;stroke-miterlimit:10;}
	.st1{fill:none;stroke:#A13ECD;stroke-width:0.5;stroke-linejoin:bevel;stroke-miterlimit:10;}
	.st2{fill:none;stroke:#A13ECD;stroke-linejoin:bevel;stroke-miterlimit:10;}
</style>
<path class="st0" d="M5.6,50.7l17,17l4.8,4.8c4.9,4.9,11.3,7.3,17.7,7.3s12.8-2.4,17.7-7.3l4.8-4.8l4.9-4.9c9.7-9.8,25.5-9.8,35.3,0
	l9.7,9.7c9.8,9.8,9.8,25.6,0,35.3l-4.9,4.8l-0.1-0.1l-4.8,4.8c-4.9,4.9-7.3,11.3-7.3,17.7c0,6.4,2.5,12.8,7.4,17.8l4.8,4.8l4.8,4.8
	c4.9,4.9,11.3,7.3,17.7,7.3c6.4,0,12.8-2.4,17.7-7.3l4.8-4.8l4.9-4.9c9.7-9.8,25.5-9.8,35.3,0L225,180"/>
<path class="st1" d="M62.7,252.4l9.7-9.7c9.8-9.7,9.8-25.5,0-35.3l-4.9-4.9l0,0l-4.8-4.7c-4.9-5-7.4-11.4-7.4-17.8
	s2.4-12.8,7.3-17.7l4.8-4.8l0.1,0.1l4.8,4.8c4.9,4.9,11.3,7.3,17.7,7.3s12.8-2.4,17.7-7.3l4.8-4.8l0.2-0.1l4.8-4.8
	c9.7-9.8,25.5-9.8,35.3,0l4.8,4.8l44.9-45"/>
<path class="st2" d="M252.2,207.5l-4.8-4.8l-4.8-4.8c-9.7-9.8-25.5-9.8-35.3,0l-4.8,4.6l0,0l-4.8,4.8c-4.9,5.1-11.3,7.3-17.7,7.3
	l0,0c-6.4,0-12.8-2.4-17.7-7.3l-4.9-4.6l0,0l-4.8-4.8c-9.7-9.8-25.5-9.8-35.3,0l-4.8,4.6l0,0l-4.8,4.8c-4.9,5.1-11.3,7.5-17.7,7.5
	l0,0c-6.4,0-12.8-2.6-17.7-7.5l-4.8-4.8l-9.7-9.7"/>
<path class="st2" d="M226,44.1l-23,23l-4.8,4.8c-4.9,4.9-11.3,7.3-17.7,7.3l0,0c-6.4,0-12.8-2.2-17.7-7.3l-4.8-4.8l0,0l-4.8-4.6
	c-9.8-9.8-25.6-9.8-35.3,0l-4.8,4.8l-0.1-0.1l-4.8-4.8C103.4,57.4,97,55,90.6,55s-12.8,2.4-17.7,7.3l-4.8,4.8l-4.8,4.8
	c-4.9,4.9-7.4,11.4-7.4,17.8l0,0c0,6.4,2.4,12.8,7.3,17.7l4.8,4.8l-23.4,23.4"/>
</svg>
