<?xml version="1.0" encoding="utf-8"?>
<!-- Generator: Adobe Illustrator 19.1.0, SVG Export Plug-In . SVG Version: 6.00 Build 0)  -->
<!DOCTYPE svg PUBLIC "-//W3C//DTD SVG 1.1//EN" "http://www.w3.org/Graphics/SVG/1.1/DTD/svg11.dtd">
<svg version="1.1" id="Layer_1" xmlns="http://www.w3.org/2000/svg" xmlns:xlink="http://www.w3.org/1999/xlink" x="0px" y="0px"
	 viewBox="0 0 90 90" style="enable-background:new 0 0 90 90;" xml:space="preserve">
<style type="text/css">
	.st0{fill:none;stroke:#4DB5D9;stroke-linejoin:bevel;stroke-miterlimit:10;}
	.st1{fill:none;stroke:#4DB5D9;stroke-width:0.5;stroke-linejoin:bevel;stroke-miterlimit:10;}
</style>
<line class="st0" x1="22.5" y1="60" x2="0" y2="60"/>
<line class="st1" x1="67.5" y1="60" x2="22.5" y2="60"/>
<line class="st0" x1="67.5" y1="30" x2="22.5" y2="30"/>
<line class="st0" x1="67.5" y1="60" x2="90" y2="60"/>
<line class="st1" x1="22.5" y1="30" x2="0" y2="30"/>
<line class="st1" x1="67.5" y1="30" x2="90" y2="30"/>
<polyline class="st1" points="15,0 0,45 22.5,60 60,90 30,0 67.5,30 90,45 75,90 "/>
<polyline class="st0" points="90,78 75,90 60,90 "/>
<polyline class="st0" points="30,0 15,0 0,12 "/>
<polygon class="st0" points="0,78 22.5,60 67.5,30 90,12 75,0 90,45 67.5,60 30,90 60,0 22.5,30 0,45 15,90 "/>
<polyline class="st1" points="0,12 22.5,30 67.5,60 90,78 "/>
</svg>
