<?xml version="1.0" encoding="utf-8"?>
<!-- Generator: Adobe Illustrator 18.1.0, SVG Export Plug-In . SVG Version: 6.00 Build 0)  -->
<svg version="1.1" id="Layer_1" xmlns="http://www.w3.org/2000/svg" xmlns:xlink="http://www.w3.org/1999/xlink" x="0px" y="0px"
	 viewBox="0 0 270 270" style="enable-background:new 0 0 270 270;" xml:space="preserve">
<style type="text/css">
	.st0{fill:none;stroke:#4DB5D9;stroke-linejoin:bevel;stroke-miterlimit:10;}
	.st1{fill:none;stroke:#4DB5D9;stroke-linejoin:bevel;stroke-miterlimit:10;}
</style>
<polyline class="st0" points="22.5,60 60,90 75,90 112.5,120 150,90 165,90 180,78 195,90 210,90 247.5,120 "/>
<polyline class="st0" points="22.5,240 67.5,210 90,192 112.5,210 135,225 157.5,210 195,180 210,180 247.5,210 261.3,198.9 "/>
<polyline class="st1" points="22.5,150 67.5,150 90,135 81.3,108.9 104,90 120,90 135,78 112.5,60 157.5,30 202.5,60 220,60 "/>
<polyline class="st1" points="265,240 247.5,240 202.8,210.2 165,180 150,180 112.5,210 75,180 81.3,161.1 67.5,150 47.3,150 "/>
</svg>
